<svg width="90" height="90" viewBox="0 0 90 90" fill="none" xmlns="http://www.w3.org/2000/svg">
<path d="M51.5 11.25C52.0523 11.25 52.5 11.6977 52.5 12.25V19.8389C54.2455 20.3584 55.9157 21.0522 57.4883 21.9043L62.8545 16.5391C63.245 16.1485 63.878 16.1485 64.2686 16.5391L73.4609 25.7314C73.8514 26.122 73.8514 26.755 73.4609 27.1455L68.0947 32.5107C68.9471 34.0836 69.6415 35.7541 70.1611 37.5H77.75C78.3023 37.5 78.75 37.9477 78.75 38.5V51.5C78.75 52.0523 78.3023 52.5 77.75 52.5H70.1611C69.6416 54.2456 68.9469 55.9156 68.0947 57.4883L73.4609 62.8545C73.8514 63.245 73.8514 63.878 73.4609 64.2686L64.2686 73.4609C63.878 73.8515 63.245 73.8515 62.8545 73.4609L57.4883 68.0947C55.9157 68.9469 54.2455 69.6406 52.5 70.1602V77.75C52.5 78.3023 52.0523 78.75 51.5 78.75H38.5C37.9477 78.75 37.5 78.3023 37.5 77.75V70.1602C35.7542 69.6405 34.0836 68.9471 32.5107 68.0947L27.1455 73.4609C26.755 73.8514 26.122 73.8514 25.7314 73.4609L16.5391 64.2686C16.1485 63.878 16.1485 63.245 16.5391 62.8545L21.9043 57.4883C21.0522 55.9157 20.3584 54.2455 19.8389 52.5H12.25C11.6977 52.5 11.25 52.0523 11.25 51.5V38.5C11.25 37.9477 11.6977 37.5 12.25 37.5H19.8389C20.3585 35.7543 21.052 34.0835 21.9043 32.5107L16.5391 27.1455C16.1485 26.755 16.1485 26.122 16.5391 25.7314L25.7314 16.5391C26.122 16.1486 26.755 16.1486 27.1455 16.5391L32.5107 21.9043C34.0835 21.052 35.7543 20.3585 37.5 19.8389V12.25C37.5 11.6977 37.9477 11.25 38.5 11.25H51.5Z" fill="#243E63"/>
<circle cx="45" cy="45" r="11.25" fill="#DDEEE8"/>
</svg>
