<svg width="50" height="50" viewBox="0 0 50 50" fill="none" xmlns="http://www.w3.org/2000/svg">
<rect width="50" height="50" rx="25" fill="#3E8E7E"/>
<path d="M36.4 19.0804C36.1 18.0179 35.35 17.2589 34.3 16.9554C32.5 16.5 24.85 16.5 24.85 16.5C24.85 16.5 17.35 16.5 15.4 16.9554C14.35 17.2589 13.6 18.0179 13.3 19.0804C13 21.0536 13 25 13 25C13 25 13 28.9464 13.45 30.9196C13.75 31.9821 14.5 32.7411 15.55 33.0446C17.35 33.5 25 33.5 25 33.5C25 33.5 32.5 33.5 34.45 33.0446C35.5 32.7411 36.25 31.9821 36.55 30.9196C37 28.9464 37 25 37 25C37 25 37 21.0536 36.4 19.0804ZM22.6 28.6429V21.3571L28.9 25L22.6 28.6429Z" fill="white"/>
</svg>
